<?xml version="1.0" standalone="no"?>
<!DOCTYPE svg PUBLIC "-//W3C//DTD SVG 20010904//EN"
 "http://www.w3.org/TR/2001/REC-SVG-20010904/DTD/svg10.dtd">
<svg version="1.0" xmlns="http://www.w3.org/2000/svg"
 width="512.000000pt" height="512.000000pt" viewBox="0 0 512.000000 512.000000"
 preserveAspectRatio="xMidYMid meet">
<metadata>
Created by potrace 1.11, written by Peter Selinger 2001-2013
</metadata>
<g transform="translate(0.000000,512.000000) scale(0.100000,-0.100000)"
fill="#000000" stroke="none">
<path d="M2390 4920 c-308 -21 -595 -100 -880 -241 -526 -262 -923 -693 -1140
-1239 -166 -417 -205 -920 -104 -1367 75 -337 245 -688 465 -960 34 -43 113
-128 174 -188 340 -338 779 -563 1260 -646 156 -27 457 -36 621 -19 727 74
1375 479 1764 1105 169 272 295 641 330 972 18 164 8 496 -19 643 -93 507
-319 933 -682 1285 -479 464 -1123 699 -1789 655z m85 -1025 c247 -17 413 -92
460 -207 32 -81 16 -208 -55 -412 -11 -33 -20 -63 -20 -68 0 -4 115 -8 255 -8
l255 0 0 -24 c0 -75 -66 -212 -131 -275 -67 -64 -74 -66 -308 -71 l-213 -5
-25 -65 c-162 -432 -241 -755 -213 -878 16 -71 38 -92 95 -92 170 0 450 254
646 587 31 52 62 94 73 97 51 13 179 -37 191 -74 7 -22 -89 -195 -195 -355
-322 -483 -680 -766 -1016 -805 -213 -24 -387 59 -470 222 -103 203 -60 544
160 1253 l34 110 -144 3 c-79 1 -144 5 -144 8 0 3 7 37 16 77 47 206 133 287
307 287 l84 0 41 148 c56 195 89 344 103 464 l12 99 56 -5 c31 -3 97 -8 146
-11z"/>
</g>
</svg>
